<svg width="63" height="50" viewBox="0 0 63 50" fill="none" xmlns="http://www.w3.org/2000/svg">
<path d="M62.7346 15.9596L59.5957 7.2535C60.6159 6.20605 62.6802 3.84589 62.6088 2.01626C62.585 1.3735 62.3129 0.822573 61.83 0.424679C59.6467 -1.35394 55.0522 2.89366 52.9539 5.05658L40.1363 7.41673C39.9288 7.45414 39.7384 7.56297 39.5955 7.71941L37.9903 9.49803C37.7421 9.77349 37.6741 10.168 37.8135 10.5115C37.9563 10.8549 38.2828 11.0862 38.6535 11.1066L47.3732 11.5623L45.1524 14.3306L40.3675 14.6911C40.109 14.7115 39.871 14.8339 39.7044 15.0311L37.1571 18.0443C37.0415 18.1803 36.9735 18.3401 36.9429 18.5068C36.7184 17.8742 36.4566 17.2519 36.1539 16.6397C34.8072 13.8953 31.7329 12.4669 28.8456 13.2389C28.747 13.2661 28.6517 13.2933 28.5565 13.3205C24.8258 14.47 22.4657 18.1191 23.071 21.8055C23.1628 22.3565 23.3125 22.8972 23.5199 23.4039C23.9892 24.55 24.7272 25.5906 25.6522 26.4102C27.7471 28.2705 30.9405 29.0799 33.7869 28.4745C34.3923 28.3453 34.9942 28.1684 35.5928 27.944C35.3751 28.869 35.0725 29.7566 34.6984 30.6102C34.4603 30.6136 34.1814 30.566 33.872 30.5082C33.6407 30.464 33.3993 30.4232 33.1442 30.396C31.1411 30.1885 29.104 31.3006 28.1926 33.0996C27.8866 33.7016 27.7199 34.3409 27.5703 34.9088C27.288 35.9903 26.9717 37.2044 27.0432 38.4695C26.2508 38.8402 25.421 39.1462 24.5606 39.3843C24.3021 38.8572 24.0742 38.3641 23.8532 37.888C23.5641 37.2656 23.2649 36.6229 22.9044 35.9019C22.7513 35.5992 22.5949 35.2863 22.5711 35.0313C22.5541 34.8476 22.6017 34.6062 22.6493 34.3511L22.6697 34.2389C23.0064 32.4093 22.9996 30.5558 22.6459 28.7296C22.5745 28.3657 22.4793 27.9474 22.2004 27.5529C21.3502 26.3524 19.7246 26.5769 19.1873 26.6483C17.4971 26.8795 15.8137 27.2604 14.1847 27.7774L13.9024 27.8692C13.2359 28.0868 12.6033 28.2909 11.998 28.3045C11.3892 28.3215 10.8519 28.1038 10.6275 27.7536C10.42 27.4305 10.3996 26.9102 10.4064 26.4919C10.4438 24.2269 11.1852 21.9654 12.4979 20.1187C12.5319 20.0677 12.5625 20.0303 12.5863 20.0031C12.6339 20.0065 12.6952 20.0099 12.7462 20.0133C12.8516 20.0235 12.9604 20.0303 13.0658 20.0337C13.5147 20.0439 13.9126 19.9351 14.2629 19.8399C14.5622 19.7617 14.8411 19.6868 15.0077 19.7276C15.2049 19.7787 15.4736 20.0643 15.6675 20.2752L17.5209 22.2715C17.6399 22.4007 17.8032 22.5775 18.0446 22.717C18.4765 22.9686 19.007 23.006 19.4968 22.8156C20.0477 22.6047 20.5034 22.1286 20.6836 21.5743C20.8979 20.9077 20.8027 20.1766 20.3946 19.3332C20.3334 19.2039 20.2653 19.0781 20.1973 18.9523C20.0409 18.653 19.8913 18.3741 19.8402 18.1225C19.7926 17.8912 19.8096 17.5953 19.83 17.2791C19.8607 16.7826 19.8947 16.218 19.7008 15.6263C19.4287 14.8033 18.82 14.2422 18.2827 13.7456C17.7521 13.2559 17.4325 12.9396 17.4427 12.6302C17.4461 12.5554 17.4699 12.4397 17.4971 12.3173C17.5277 12.1779 17.5617 12.0214 17.5821 11.848C17.7045 10.7937 17.208 9.89252 16.6741 9.21236C17.0924 9.10694 17.5175 9.01851 17.9494 8.9471C18.6058 10.6067 20.3062 11.797 22.1018 11.797C22.2446 11.797 22.3908 11.7902 22.5337 11.7732C24.0062 11.6133 25.1795 10.7699 26.2474 9.88572C26.6895 10.066 27.1248 10.2598 27.5533 10.4809C28.026 10.7257 28.6075 10.5387 28.8524 10.066C29.0972 9.59325 28.9102 9.01171 28.4375 8.76685C25.9651 7.49155 23.1934 6.81819 20.4048 6.81819C20.3742 6.81819 20.3402 6.81819 20.3096 6.81819C10.9845 6.8692 3.1695 14.4938 2.89403 23.8154C2.7512 28.7058 4.57403 33.3003 8.02925 36.7487C11.3518 40.0645 15.7253 41.8703 20.4014 41.8703C20.5918 41.8703 20.7823 41.8669 20.9727 41.8601C29.5529 41.5914 36.5416 35.1945 37.7523 26.9068C39.4425 25.9205 41.1191 24.5228 42.8093 22.7C43.3738 22.0912 43.9248 21.4451 44.4485 20.7751L45.7646 22.5435C45.9516 22.7952 46.2407 22.9312 46.54 22.9312C46.6726 22.9312 46.8052 22.904 46.9345 22.8462L49.094 21.8804C49.5055 21.6967 49.7333 21.2512 49.6449 20.8091L49.0804 18.0272L52.5968 13.8L58.1435 19.9181C58.3204 20.1153 58.572 20.2276 58.8373 20.2344C59.1059 20.2344 59.3576 20.1357 59.5447 19.9487L62.5136 16.956C62.7754 16.7009 62.8604 16.3098 62.7346 15.9596ZM33.3891 26.5939C31.1207 27.0734 28.5871 26.4374 26.9343 24.9717C26.227 24.3459 25.6658 23.5502 25.3053 22.6761C25.1523 22.3021 25.0401 21.9042 24.9721 21.4961C24.5232 18.755 26.3086 16.0344 29.1244 15.1672C29.1993 15.1434 29.2707 15.123 29.3455 15.1026C29.706 15.0039 30.0733 14.9597 30.4338 14.9597C32.0763 14.9597 33.6475 15.9187 34.4195 17.4899C35.518 19.7276 36.0519 22.132 36.0043 24.6384C35.9975 24.9921 35.9805 25.3424 35.9499 25.6893C35.0997 26.111 34.2461 26.4102 33.3891 26.5939ZM20.3266 8.74645C21.5849 8.73965 22.8159 8.87908 24.013 9.16475C23.4723 9.52183 22.9112 9.7973 22.3296 9.85851C21.459 9.95374 20.5544 9.47762 20.0307 8.75665C20.1327 8.75325 20.2279 8.74645 20.3266 8.74645ZM20.9149 39.9352C16.5619 40.0713 12.4707 38.4559 9.39297 35.385C6.31864 32.314 4.69306 28.2229 4.82229 23.8732C5.00933 17.5579 9.0869 12.1234 14.6846 9.86531C15.2186 10.4298 15.7355 11.0624 15.6709 11.6303C15.6607 11.7222 15.6402 11.8106 15.6198 11.899C15.579 12.0826 15.528 12.3139 15.5178 12.569C15.477 13.7796 16.3102 14.5448 16.9768 15.1638C17.3781 15.5345 17.7556 15.8847 17.8712 16.2316C17.9494 16.4697 17.929 16.7928 17.9086 17.1634C17.8848 17.5681 17.8576 18.0238 17.9562 18.5068C18.0616 19.0271 18.2929 19.4658 18.4969 19.8501C18.5547 19.9589 18.6126 20.0677 18.667 20.1766C18.8472 20.5438 18.8778 20.7615 18.871 20.8839L17.0856 18.9591C16.7455 18.5952 16.2354 18.0409 15.4838 17.8538C14.8343 17.6906 14.2459 17.847 13.7698 17.9762C13.5181 18.0443 13.2869 18.1055 13.0998 18.1055C13.0386 18.1055 12.9774 18.0987 12.9162 18.0919C12.6305 18.0681 12.2428 18.034 11.8245 18.2143C11.3518 18.4183 11.0798 18.7958 10.9369 19.0033C9.40317 21.1628 8.53257 23.812 8.48836 26.4612C8.47815 27.1516 8.52576 28.0426 9.01888 28.801C9.61062 29.7192 10.7771 30.2667 12.0592 30.2327C12.9434 30.2089 13.7392 29.9505 14.5078 29.7022L14.7798 29.6138C16.3034 29.1275 17.878 28.7738 19.456 28.5561C20.4116 28.4269 20.6054 28.6242 20.6326 28.665C20.6904 28.75 20.7347 28.9778 20.7585 29.0901C21.0611 30.6578 21.0679 32.3174 20.7789 33.8852L20.7585 33.9906C20.6904 34.3443 20.6156 34.749 20.6564 35.1979C20.7109 35.8203 20.9761 36.344 21.187 36.7657C21.5372 37.4595 21.8297 38.0886 22.112 38.6973C22.2752 39.0476 22.4419 39.4081 22.6221 39.7856C22.061 39.8638 21.493 39.9182 20.9149 39.9352ZM29.0156 37.3642C29.1006 36.7113 29.2707 36.0481 29.4407 35.3986C29.5768 34.8816 29.7026 34.3919 29.9168 33.9736C30.4678 32.8888 31.7431 32.1916 32.9504 32.3174C33.1306 32.3344 33.3244 32.3718 33.5285 32.4093C33.5999 32.4229 33.6747 32.4365 33.7495 32.4501C32.5525 34.4157 30.9337 36.0957 29.0156 37.3642ZM41.398 21.3906C40.2315 22.6489 39.082 23.6794 37.9393 24.4922C37.9563 22.7204 37.7081 20.9961 37.2116 19.3332C37.3748 19.4964 37.5891 19.6086 37.8271 19.6256L42.6392 19.9555C42.2345 20.4554 41.8231 20.9349 41.398 21.3906ZM58.8917 17.8776L53.2804 11.6881C53.0933 11.4807 52.8247 11.3753 52.5458 11.3719C52.2669 11.3787 52.0051 11.5045 51.8248 11.7188L47.3017 17.1532C47.1147 17.3777 47.0399 17.677 47.0977 17.9626L47.601 20.4418L46.8528 20.7785L45.1864 18.5408C45.0198 18.3163 44.7613 18.1735 44.4791 18.1531L39.8574 17.8368L40.915 16.5853L45.717 16.2214C45.9822 16.201 46.2305 16.0718 46.3971 15.8643L50.0564 11.3005C50.2843 11.0182 50.3319 10.6339 50.1822 10.304C50.0326 9.97414 49.7129 9.75309 49.3524 9.73608L40.7756 9.28718L40.8062 9.25317L53.6068 6.89641C53.8075 6.859 53.9911 6.76038 54.1306 6.61414C57.0111 3.59763 59.98 1.61156 60.6091 1.91763C60.6465 1.94824 60.6771 1.97205 60.6805 2.08767C60.7179 3.0535 58.9903 5.1756 57.8136 6.30127C57.5382 6.56653 57.443 6.96783 57.5722 7.32491L60.7145 16.0344L58.8917 17.8776Z" fill="#2D2D2D"/>
<path d="M3.10834 34.4532L3.70688 35.334L2.75125 36.6671C2.61862 36.8405 2.45878 37.0208 2.31595 37.201L2.32955 37.2214C2.5506 37.1568 2.77506 37.0718 2.98591 37.014L4.56388 36.5991L5.16242 37.4799L2.05409 39.5918L1.54737 38.847L2.46558 38.2246C2.78186 38.0104 3.30898 37.7485 3.64566 37.5751L3.63206 37.5547L2.71044 37.803L1.42154 38.1192L1.12227 37.6805L1.89085 36.5991L2.46898 35.8441L2.45538 35.8237C2.16971 36.0719 1.73101 36.4664 1.41814 36.6841L0.499918 37.3064L0 36.5651L3.10834 34.4532Z" fill="#2D2D2D"/>
<path d="M5.31877 38.4083L6.04994 39.2449L3.61496 41.3704L2.88379 40.5338L5.31877 38.4083ZM5.99553 37.7315C6.24038 37.5173 6.58387 37.5615 6.82192 37.8335C7.05998 38.1056 7.05318 38.4525 6.81172 38.6667C6.56686 38.881 6.22338 38.8368 5.98532 38.5647C5.74727 38.2927 5.75067 37.9458 5.99553 37.7315Z" fill="#2D2D2D"/>
<path d="M5.2336 41.2649L7.83862 38.6191L8.71603 39.4795L6.0804 42.1559C5.91036 42.3294 5.94097 42.4586 6.00218 42.5198C6.03279 42.5504 6.0532 42.5708 6.10421 42.6015L5.57368 43.3428C5.44105 43.2952 5.27101 43.183 5.07716 42.9925C4.48542 42.411 4.67247 41.8363 5.2336 41.2649Z" fill="#2D2D2D"/>
<path d="M9.38294 39.8536L10.4134 40.6256L9.68561 41.5948L9.25371 42.0743C9.59039 42.0471 10.0325 42.0573 10.4406 42.3634C11.1003 42.8565 11.0153 43.5401 10.461 44.2849L9.08027 46.1281L8.04983 45.3561L9.33193 43.6421C9.6176 43.2578 9.59379 43.0912 9.38974 42.9382C9.1993 42.7953 9.02586 42.7987 8.764 42.8259L7.29485 44.7916L6.2644 44.0196L9.38294 39.8536Z" fill="#2D2D2D"/>
<path d="M10.8926 45.8424C11.2633 45.0398 12.0897 44.88 13.6405 45.4105C13.7391 45.1181 13.6269 44.9174 13.2868 44.7576C13.0079 44.6283 12.6645 44.6011 12.1645 44.6317L12.1033 43.5537C12.7937 43.4789 13.4364 43.5537 14.0384 43.8326C15.0416 44.2985 15.3919 45.1147 14.807 46.3832L13.8139 48.5291L12.7325 48.0291L12.8107 47.6142L12.7801 47.6006C12.3414 47.7367 11.9163 47.7639 11.5014 47.57C10.7736 47.2334 10.6002 46.4784 10.8926 45.8424ZM13.0352 46.7232L13.2766 46.1995C12.5999 45.9989 12.3074 46.1077 12.2088 46.3219C12.1271 46.4988 12.202 46.6586 12.4366 46.764C12.6509 46.8661 12.8243 46.8151 13.0352 46.7232Z" fill="#2D2D2D"/>
<path d="M15.3003 48.4951L16.1573 47.7265C16.4906 48.1074 16.8137 48.325 17.1163 48.3896C17.4258 48.4576 17.5686 48.3998 17.606 48.2264C17.6571 48.0019 17.2796 47.8115 16.8885 47.5428C16.4328 47.2334 15.926 46.7334 16.0825 46.0261C16.2695 45.1793 17.0823 44.7814 18.1026 45.0058C18.8099 45.1623 19.2486 45.5602 19.5649 45.9275L18.7147 46.662C18.4528 46.3696 18.1808 46.1621 17.9155 46.1043C17.6639 46.0499 17.521 46.0907 17.4802 46.2607C17.4292 46.4852 17.7931 46.6552 18.1876 46.9069C18.6637 47.213 19.1772 47.6687 19.0072 48.4475C18.8269 49.2602 18.0515 49.7398 16.8409 49.4711C16.2899 49.3453 15.6676 48.9576 15.3003 48.4951Z" fill="#2D2D2D"/>
<path d="M22.0302 47.8523C21.8942 46.407 22.7138 45.4615 23.6116 45.3765C24.0877 45.3323 24.3836 45.4819 24.6727 45.7234L24.5604 45.0943L24.4278 43.6659L25.9412 43.5231L26.5125 49.6513L25.278 49.767L25.1352 49.3725L25.1012 49.3759C24.8291 49.7023 24.4278 49.954 24.0401 49.9914C22.9485 50.0934 22.1629 49.2807 22.0302 47.8523ZM24.8665 48.3522L24.7169 46.7334C24.5264 46.5906 24.2918 46.56 24.0979 46.577C23.7817 46.6076 23.5062 46.9171 23.581 47.6925C23.6558 48.4849 23.9279 48.7603 24.3326 48.7229C24.5604 48.7025 24.7305 48.6141 24.8665 48.3522Z" fill="#2D2D2D"/>
<path d="M27.7708 48.1209C27.4953 47.2435 28.0156 46.543 29.5834 45.8662C29.4542 45.5737 29.2263 45.4955 28.8556 45.6112C28.553 45.7064 28.2673 45.924 27.9034 46.2981L27.1008 45.5125C27.5803 44.9718 28.1245 44.5807 28.7808 44.3733C29.8793 44.0298 30.7227 44.4141 31.1546 45.7982L31.8892 48.1448L30.7091 48.5154L30.4812 48.1414L30.4472 48.1516C30.2058 48.5597 29.8963 48.8793 29.4406 49.0222C28.6516 49.2738 27.985 48.8147 27.7708 48.1209ZM30.0323 47.3014L29.8521 46.7266C29.1923 47.0463 29.0427 47.332 29.1141 47.57C29.1753 47.7639 29.3454 47.8319 29.597 47.7537C29.8351 47.6788 29.9337 47.5156 30.0323 47.3014Z" fill="#2D2D2D"/>
<path d="M32.1719 41.6085L33.5254 40.595L35.7087 42.0131C35.9944 42.2104 36.2903 42.4519 36.5861 42.6661L36.6167 42.6457C36.4977 42.2988 36.3481 41.9519 36.2392 41.6187L35.4673 39.1463L36.8208 38.1328L40.395 42.911L39.249 43.768L38.1913 42.3566C37.8274 41.8703 37.3751 41.0507 37.0758 40.5304L37.0452 40.5508L37.5077 41.9961L38.1029 44.0162L37.4261 44.5229L35.6543 43.3837L34.413 42.5233L34.3824 42.5471C34.7973 42.9824 35.4571 43.6455 35.8209 44.1319L36.8786 45.5432L35.7461 46.39L32.1719 41.6085Z" fill="#2D2D2D"/>
<path d="M37.2458 37.3846L38.2491 36.1637L42.8572 39.9556L41.8539 41.1731L37.2458 37.3846Z" fill="#2D2D2D"/>
<path d="M38.8679 35.5346L39.5991 34.0926L42.5714 34.1164L44.0235 34.2151L44.0405 34.1811C43.4352 33.9566 42.5748 33.6641 41.9184 33.3309L40.3779 32.5521L41.058 31.2088L46.3803 33.9056L45.6491 35.3475L42.67 35.3203L41.2247 35.2251L41.2077 35.2591C41.847 35.5006 42.6734 35.776 43.3298 36.1093L44.8703 36.8881L44.1902 38.2314L38.8679 35.5346Z" fill="#2D2D2D"/>
<path d="M41.4966 29.3893L41.9115 27.5257L48.1316 27.0462L47.7677 28.6786L44.7886 28.7126C44.2002 28.733 43.4622 28.7194 42.8467 28.733L42.8399 28.767C43.4044 29.0254 44.071 29.3213 44.5947 29.59L47.278 30.8823L46.9277 32.4603L41.4966 29.3893ZM44.7818 30.6476L45.4143 27.7978L46.6046 28.063L45.972 30.9129L44.7818 30.6476Z" fill="#2D2D2D"/>
</svg>
